<?xml version='1.0' encoding='UTF-8'?>
<!-- Generator: Adobe Illustrator 19.0.0, SVG Export Plug-In . SVG Version: 6.00 Build 0)  -->
<svg xmlns="http://www.w3.org/2000/svg" xmlns:xlink="http://www.w3.org/1999/xlink" version="1.1" x="0px" y="0px" viewBox="0 0 1000 1000" style="enable-background:new 0 0 1000 1000;" xml:space="preserve">
<style type="text/css">
	.st0{fill:#F49129;}
	.st1{fill:#924718;}
	.st2{fill:url(#SVGID_1_);}
	.st3{fill:#DC751C;}
	.st4{fill:#502C14;}
	.st5{fill:none;}
	.st6{fill:#F99B32;}
	.st7{fill:#AB5218;}
	.st8{fill:#3A2315;}
	.st9{fill:#723913;}
	.st10{fill:#C66422;}
</style>
<g id="Layer_1">
</g>
<g id="Layer_2">
	<rect x="0" width="1000" height="1000" fill="none"/>
	<path d="M0,689.7c0,0,91.9-70.3,146.5-137.7s118.2-98,157.3-98s-7.1-68.3-7.1-68.3L253,344.1l-86.7-2.7L70.2,396L14.1,515.3   L0,580.8V689.7z"/>
	<path class="st0" d="M885.6,566.8c0,0-18.4,10.4-41.5,1.8c-23-8.6-38.5-31.4-38.5-31.4s-6.7-8.6-7.5-16c0,0-16.1-8.3-31.4-20   c-15.3-11.7-31-30.8-33.1-38.4c0,0-5.9,0.2-11.6-1.2c-5.7-1.4-51.5-11.2-61.9-22.6c0,0-17.2,10.9-34.6,10.8   c-17.4-0.2-35.3-7.2-35.3-7.2s-11.4-4.7-2.5-11c8.8-6.3,10.1-9.2,10.1-9.2l-8.8-5.8c0,0-1.9,17.6-12.3,22.9   c-10.4,5.3-19.2,9.5-19.2,9.5s-19.1,8.3-36.5,12.4c-17.4,4.1-16.4-16.7-12.7-21.6c3.7-4.9,19.2-13.8,22.3-30.9   c0,0-12.3,25.7-23.2,20.2c-10.9-5.5-24.6-6.4-24.6-6.4s-31.3-2.4-25.6,5.6c0,0,24.1,21.2,33.4,32.8c9.3,11.6,18,31,18,31   s4.2,13.3,17.7,22.6c13.5,9.3,34.2,16.5,34.2,16.5s30.9,12.9,49.5,32.2c18.6,19.3,31.8,32.6,31.8,32.6s18.6,24.5,8.4,45.5   c-2.4,4.8-5.1,8.4-8,10.9c-9.7,8.6-21.3,6-27,2c-7.4-5.2-27.3-20.6-38-26.5c-10.7-5.9-34-24.8-34-24.8s-12.8-10-23.8-20.2   c-11-10.2-42.1-31.6-53.6-36.7c-11.5-5.2-14.2-9.7-24.1-9.7c-8.7,0-33-5.3-46.3-13.4c-1.8-1.1-3.3-2.2-4.6-3.4c0,0-0.9,0.1-2.4,0.2   c-1.2,0.1-2.8,0.2-4.7,0.2c-3.7,0-8.4-0.2-13.2-1.1c-10.2-2-23.1-8.2-23.1-8.2s-26-12.9-46.4-41.9c-20.4-29.1-29.2-52.3-29.2-52.3   s-0.1-0.3-0.2-0.8c-0.6-2.1-2-8-0.6-11.6c0,0-2.7,1.1-3.2,3.8c0,0-33.4-22.9-62.7-30s-44.4,0.8-44.4,0.8s-32.4,11.6-63.3,29.2   c2.2-0.8,37-13.7,63.7-11.9c27.7,1.9,44.4,16.8,44.4,16.8s10.6,9.2-2.7,12.2c-13.3,3-35.2,7.9-67.5,33.8S15.4,565.7,0,578.6V353.9   c0,0,31.2-22,60.9-33.3c29.7-11.3,55.3-11.3,76.3-19.6c21-8.3,28.3-13.2,28.3-13.2s37.2-26.9,79-29.7c41.8-2.8,76,6.9,76,6.9   s95.3,22.4,130.7,37.4c0,0,10.7,2.4,44,2.2c33.3-0.2,69.1,1.2,103.8,11.9c18.7,5.8,29.9,15.8,36.3,23.8c5.4,6.8,7.3,12.2,7.3,12.2   s4.2,10.8,19.2,15.4c14.9,4.6,65.9,28.3,91.8,36.3s36.7,26.2,36.7,26.2s18.8,26.1,39.4,42.8c20.6,16.7,42.1,58.5,42.1,58.5   s6,10.9,12,19.8C889.9,560.3,885.6,566.8,885.6,566.8z"/>
	<path class="st1" d="M271.3,415.8c-0.6-2.1-2-8-0.6-11.6c0,0-2.7,1.1-3.2,3.8c0,0-33.4-22.9-62.7-30s-44.4,0.8-44.4,0.8   s-32.4,11.6-63.3,29.2c1.6-0.6,19.6-7.2,39.4-10.4c8.1-1.3,16.5-2,24.3-1.5c27.7,1.9,44.4,16.8,44.4,16.8s10.6,9.2-2.7,12.2   c-13.3,3-35.2,7.9-67.5,33.8c-0.8,0.6-1.6,1.3-2.5,2C98.6,488.9,15,566,0,578.6V439.2c10.2-12,35.5-36.8,80.1-51.9   c60.3-20.4,80.7-27.6,94.8-33.3c14.1-5.7,32.7-9.7,65.3,3.1C270.8,369.2,289.5,400.7,271.3,415.8z"/>
	<linearGradient id="SVGID_1_" gradientUnits="userSpaceOnUse" x1="126.9793" y1="428.5689" x2="209.3937" y2="428.5689">
		<stop offset="0" style="stop-color:#904817"/>
		<stop offset="0.2346" style="stop-color:#773D16"/>
		<stop offset="0.5009" style="stop-color:#613415"/>
		<stop offset="0.7596" style="stop-color:#542E14"/>
		<stop offset="1" style="stop-color:#502C14"/>
	</linearGradient>
	<path class="st2" d="M202.7,425.2c-13.3,3-35.2,7.9-67.5,33.8c-0.8,0.6-1.6,1.3-2.5,2c-5.7-19.1-10.9-48.4,4-63.4   c8.1-1.3,16.5-2,24.3-1.5c27.7,1.9,44.4,16.8,44.4,16.8S216,422.2,202.7,425.2z"/>
	<g>
		<path class="st3" d="M395.2,523.1c-1.8-1.1-3.3-2.2-4.6-3.4c0,0-0.9,0.1-2.4,0.2c-1.2,0.1-2.8,0.2-4.7,0.2l-59.8-80.9    c0.7,0.6,9.6,9.5,21.4,22.2C360.9,478.4,381.8,502.3,395.2,523.1z"/>
		<path class="st4" d="M395.2,523.1c-1.8-1.1-3.3-2.2-4.6-3.4c0,0-0.9,0.1-2.4,0.2c-10.2-14.2-29.6-40.8-43.1-58.5    C360.9,478.4,381.8,502.3,395.2,523.1z"/>
	</g>
	<path class="st1" d="M318.3,275c0,0,38.5,0.2,60.7,14.1c22.1,13.9,21,35.1,21,35.1s-1.1,13.9-6.2,18.1c-5.2,4.2-24.5,1.4-34.6-16.1   C349.1,308.7,324.8,276.3,318.3,275z"/>
	<path class="st1" d="M883.8,551.4c-6-8.9-12-19.8-12-19.8s-21.5-41.8-42.1-58.5c-20.6-16.7-39.4-42.8-39.4-42.8   s-10.8-18.2-36.7-26.2s-76.9-31.7-91.8-36.3c-15-4.6-19.2-15.4-19.2-15.4s-1.9-5.4-7.3-12.2c-7.3-5.2-16.2-10.9-26.7-16.5   c-34.2-18.2-103-14.1-103-14.1c48.3-0.1,81.7,10.7,81.7,10.7s-51.8,4.5-85.2-5.7c-31.8-9.6-55.9-9.3-58.2-9.2   c5.7,0,32.5,10.8,47.6,17.9c15.3,7.2,25.7,1.6,25.7,1.6c-4.4,1.1-11.8-2.4-11.8-2.4c23.4-1.9,69.1,7.9,103.1,17.9   c33.9,10,32.5,39,32.5,39c17.8,1.9,86.1,31.1,86.1,31.1c46.2,16.4,73.8,55.1,73.8,55.1s9.2,11.6,18.5,18.9   c-2,2.6-7.1,9.4-11.8,15.1c-6,7.3-24.5,2.5-36.5-4.6c-12-7.1-22-23.2-24.3-29.4c-2.2-6.3,0-11.4,2.8-19.8   c2.8-8.4-1.5-16.7-1.5-16.7s-0.5,22-15.3,23.7c-14.8,1.7-41.9-8.7-41.9-8.7s-16.3-4.6-26.7-11c-10.4-6.4-7.2-19.6-7.2-19.6   c-2.2,7.2-16.2,23.2-35.6,20.9c-19.5-2.4-27-1.1-27-1.1c8.2-4.9,9.3-17,9.3-17c-7.9,5.5-15.2-6.7-15.2-6.7s-16.5,14.6-33.9,21.3   c-17.4,6.7-31.4,4.6-31.4,4.6c11.8-10.8,14.8-36.3,14.8-36.3c-16,10.4-40.5,8.5-57.9,3.8c-17.4-4.7-41.9-15.1-70.8-23.3   c-28.9-8.2-50.7-39.6-50.7-39.6s23.6,72.5,69.1,92.5c45.5,19.9,49.1,41.5,49.1,41.5s18.5,45.2,46.2,55.4   c27.6,10.2,27.2,27.5,24.3,31.4c-2.8,3.9-4.2,14.8-4.2,14.8s7.9-19.1,25.9-13.8c18.1,5.3,40.2,21,40.2,21   c-4.4-0.6-22.3,3.9-26.4,16.6c-4.1,12.7,3.4,21.2,3.4,21.2l29.5-27.5l26,44.1l-5.7,12.9l6.3,2.1c2.9-2.6,5.6-6.1,8-10.9   c10.3-21-8.4-45.5-8.4-45.5s-13.2-13.3-31.8-32.6c-18.6-19.3-49.5-32.2-49.5-32.2s-20.7-7.1-34.2-16.5   c-13.5-9.3-17.7-22.6-17.7-22.6s-8.7-19.4-18-31c-9.3-11.6-33.4-32.8-33.4-32.8c-5.7-7.9,25.6-5.6,25.6-5.6s13.7,0.9,24.6,6.4   c10.9,5.5,23.2-20.2,23.2-20.2c-3.1,17.1-18.6,26.1-22.3,30.9c-3.7,4.9-4.7,25.7,12.7,21.6c17.4-4.1,36.5-12.4,36.5-12.4   s8.8-4.2,19.2-9.5c10.4-5.3,12.3-22.9,12.3-22.9l8.8,5.8c0,0-1.3,2.9-10.1,9.2c-8.8,6.3,2.5,11,2.5,11s17.8,7.1,35.3,7.2   C643,450,660.2,439,660.2,439c10.4,11.4,56.3,21.2,61.9,22.6c5.7,1.4,11.6,1.2,11.6,1.2c2,7.5,17.7,26.7,33.1,38.4   c15.3,11.7,31.4,20,31.4,20c0.8,7.4,7.5,16,7.5,16s15.5,22.8,38.5,31.4c23,8.6,41.5-1.8,41.5-1.8S889.9,560.3,883.8,551.4z    M816.4,541.1c-13.7-17.6-7.8-35.2-7.8-35.2l14.7-18.3c1.4,0.8,2.7,1.5,4,2.1c11.2,4.4,19.7,24.4,23.3,40.8   c3.7,16.4,21.3,31,21.3,31C836.3,567.9,830,558.6,816.4,541.1z"/>
	<g>
		<path class="st5" d="M626.8,652.8c-2.3,0-4.6-0.5-7-1.3c-14.6-5.5-28.5-22-29.1-22.7c-5.4-6.3-12.6-21.2-0.5-31.8    c4.6-4.1,13.9-10.9,24-10.9c1.9,0,3.7,0.2,5.4,0.7c9.5,2.5,18.6,10.6,23.1,20.5c5.2,11.5,4.4,22.7,3.8,27.1    c-0.2,1.8-0.7,3.4-1.5,5C641.1,647.9,634.4,652.8,626.8,652.8z"/>
		<g>
			<path class="st6" d="M640.9,633.5c-0.2,1.2-0.5,2.3-1,3.4c-0.6,1.2-1.5,2.9-2.8,4.6c-3,3.8-8,7.4-15.3,4.6     c-13.3-5-26.8-21-26.8-21s-12.2-14.2-1.1-23.9c1.1-1,2.4-2.1,3.8-3c5.9-4.3,13.5-7.8,20.4-6c8.4,2.2,15.9,9.7,19.4,17.4     C642.2,619.7,641.5,629.6,640.9,633.5z"/>
			<path class="st7" d="M640.9,633.5c-0.2,1.2-0.5,2.3-1,3.4c-0.6,1.2-1.5,2.9-2.8,4.6l-39.4-43.4c5.9-4.3,13.5-7.8,20.4-6     c8.4,2.2,15.9,9.7,19.4,17.4C642.2,619.7,641.5,629.6,640.9,633.5z"/>
		</g>
	</g>
	<path class="st8" d="M161.1,466.5c0,0,25.7-25.4,59.1-34.6c33.4-9.2,49.9-2.1,49.9-2.1s-28.3-0.5-63.6,12.7   C171.2,455.7,161.1,466.5,161.1,466.5z"/>
	<g>
		<path class="st9" d="M530,469.2c0,0,6.4-4,14.3-1.1c7.9,2.9,13.6,2.2,19-1.7c5.4-3.9,15.7-5.1,27.2,0.6c0,0-13.4-1.2-26.1,6.5    C551.6,481.2,530,469.2,530,469.2z"/>
		<path class="st9" d="M571.1,478.9l6.4-0.9c0,0,6.4,24.7,17.9,37.9c11.5,13.2,12.5,21.1,12.5,21.1s-13.1-11.8-22.1-24    C576.6,500.8,571.1,478.9,571.1,478.9z"/>
		<path class="st9" d="M614.4,473.4c0,0,4.5,7,13.2,7.5c8.8,0.5,13,3.9,12.7,9c-0.2,5.1-9.7,3.5-9.7,3.5s-9.8-1-15.2-8.2    C610.1,477.9,614.4,473.4,614.4,473.4z"/>
		<path class="st9" d="M641.3,493.6c0,0,4.9,6.7,5.6,15.1c0.7,8.4,11.1,25.4,19.6,38.3c8.1,12.2,24.9,41.8,35.7,52.1    c0.9,0.8,2,1.2,3.2,1c3.5-0.5,11.6-0.4,18.2,8.8c8.6,12,7.4,26.4,7.4,26.4s2.8,21.3,12.6,30.4c9.8,9.1,14.5,6.9,14.5,6.9    s-7.5,7.2-20.7-0.7s-22.8-26-22.8-26s-16-21.2-13.4-40.1c0.1-0.4-0.1-0.8-0.3-1.2c-3.3-4.1-25.7-31.5-33.7-46.4    c-8.7-16.1-20.7-32.7-20.7-32.7s-7.8-6-7.1-17.4S641.3,493.6,641.3,493.6z"/>
		<path class="st9" d="M687.1,544c0,0-2.2-5.7,2.6-8.4s8.1,3.5,9.1,9.7s8.6,19.5,13.3,25.9c4.7,6.4,11.1,15.1,8.1,19.1    s-12.4-9.5-16.4-14.8C699.7,570.2,687.1,544,687.1,544z"/>
		<path class="st9" d="M676.2,476.5c0,0-2.6-4.8-0.5-6.3c2.1-1.5,4.9,2.7,4.9,2.7s7.5,11.3,26.3,17.9c18.8,6.7,22.6,7.2,22.6,7.2    s4.7,1,3.5,4.2c-0.8,2.2-3.9,4.4-5.7,5.5c-1,0.6-2.1,0.9-3.3,0.9c-2.3-0.1-6.8-0.8-14.5-4C697.3,499.7,679.1,484.9,676.2,476.5z"/>
		<path class="st9" d="M723.1,539.1c0,0-6.2-27.1,7.9-30.4c14.1-3.3,18.8,12.5,18.8,12.5s16,38.2,18,55.5c2,17.3-8.5,19.9-8.5,19.9    s-10.8,4.9-18.7-8.5C732.8,574.8,723.1,539.1,723.1,539.1z"/>
		<path class="st9" d="M753,610.5c0,0-1.6-10.1,8.3-11.4c10-1.3,12.1,7.9,13.3,14.9c1.3,7,7.3,31.8,17,43.7s13.7,10.3,16.9,7.4    c3.1-2.9-0.7-10-0.7-10s-9.3-18.7-11.5-33.2s0.1-52.8,0.1-52.8s1.8-8.5-1.8-12c0,0,6.8-0.1,6.9,6.7c0.2,6.8-3,26-1.1,52.5    c2,26.5,10.2,36.1,10.2,36.1s5.6,9.2,0.4,15.1c-5.2,6-15.2,4.9-15.2,4.9s-22.5,0.6-33.3-17S753,610.5,753,610.5z"/>
	</g>
	<path class="st10" d="M583.6,673.4c0,0-1.6,1.3-4,2.6v0c-3.1,1.6-7.6,3-11.5,0.9c-6.7-3.8-11.3-10.8-11.3-10.8s-6.1-8.2-3.4-16   c0.2-0.6,0.5-1.2,0.8-1.8c2-3.7,5.9-7.2,9.1-9.7c3.7-2.8,8.6-3.8,13.1-2.4c5.2,1.6,11.8,5.1,15.2,13   C597.9,663.5,583.6,673.4,583.6,673.4z"/>
	<path class="st9" d="M583.6,673.4c0,0-1.6,1.3-4,2.6c2.7-5.2,6.4-15.9-1-25c-7.6-9.4-19.1-5.5-24.5-2.8c2-3.7,5.9-7.2,9.1-9.7   c3.7-2.8,8.6-3.8,13.1-2.4c5.2,1.6,11.8,5.1,15.2,13C597.9,663.5,583.6,673.4,583.6,673.4z"/>
</g>
</svg>
