<?xml version='1.0' encoding='UTF-8'?>
<!-- Generator: Adobe Illustrator 19.0.0, SVG Export Plug-In . SVG Version: 6.00 Build 0)  -->
<svg xmlns="http://www.w3.org/2000/svg" xmlns:xlink="http://www.w3.org/1999/xlink" version="1.1" x="0px" y="0px" viewBox="0 0 1000 1000" style="enable-background:new 0 0 1000 1000;" xml:space="preserve">
<style type="text/css">
	.st0{fill:#513017;}
	.st1{fill:#F6942C;}
	.st2{fill:#AC5119;}
	.st3{fill:#F9982E;}
	.st4{fill:#D06816;}
	.st5{fill:#C4651B;}
</style>
<g id="Layer_1">
</g>
<g id="Layer_2">
	<rect width="1000.1" height="1000" fill="none"/>
	<g>
		<path class="st0" d="M667.5,546.4c0,0,34.1,6.3,53.7,0c19.5-6.3,35.3-29.5,35.3-29.5s18-22.1,23.7-32.9c0,0,1.5-1.4,4.1,0    s-1.6,7-1.6,7s-16.4,28.5-41.5,49.4c-25.1,20.9-71.3,9.6-78.4,9.1L667.5,546.4z"/>
		<path class="st1" d="M1000.1,254v221c0,0-73.6-18.5-148.4-3.1c0,0,17.1-36.8,93.6-30.6c0,0-43.8-18-104.5-2    c0,0-49.3,17.7-31.1-32.9c0,0-11.8,5.3-21.3-0.1c0,0-12.1,20.9-22.9,43.8c-10.8,22.9-18.8,34.3-18.8,34.3s-14.3,19.4-26.8,28    c-12.5,8.6-35.3,27.5-35.3,27.5s-14,12.4-28.9,9.1c-14.9-3.3-31.1-13.6-31.1-13.6s11.7-5.9,14.7-14.1c0,0-13.7,14.1-35.1,22.1    c-21.4,8-32.2,11.7-32.2,11.7s-11.3,1.2-22.2,9.8c0,0-23.7,22.3-56.6,43.2c-32.9,20.9-61.9,27.6-61.9,27.6s-17.5,3-29.9-5.2    c-3-2-5.7-4.7-7.8-8.2c-10.6-18.1-3.7-29.4-3.7-29.4s5.1-12,31.5-21.1c26.5-9.1,44.7-27.7,44.7-27.7s10.7-12.5,29.8-19.5    c19.1-6.9,34.8-13.3,39.8-29.3c5.1-16,31-36,31-36s0,0-0.1,0c0,0,0,0,0,0c-2-0.2-31.6-2.9-47.2,7.1c0,0,5.1,13.6,8.6,22.7    c3.6,9.1,1.3,13.1-1.5,16.4c-2.7,3.4-8.4,4.7-15,1.2c-6.5-3.6-25.8-17.6-32.7-28c0.6,1,10.1,17.9,20.2,26.2    c10.4,8.6,1.1,13.8,1.1,13.8s-11.7,5.2-28.4-6.7C455,499.9,448.4,496,448.4,496s-19.7-14.3-19.1-30.1c0,0-14.9,17.6-36.2,14.6    c-21.4-3-37.9-8.3-46.1-17.6c0,0-24,26-72.9,21.8c0,0-7.7,11.7-25.6,14.8c-17.9,3.1-46.3,4.5-46.3,4.5s-21-0.7-25.5-13.4    c-0.1-0.3-0.2-0.6-0.3-0.9c-3.8-13.4,12.6-23.2,40.1-26.7c0.6-0.1,1.2-0.3,1.8-0.6c4.4-2.6,26.1-15.2,49.9-18.7    c0.5-0.1,1-0.2,1.5-0.5c4.5-2.2,29.4-14.5,50.7-21.3c23.5-7.5,53.5-5.8,53.5-5.8s40.4,0.8,59.8-0.8c19.4-1.7,28.2-7.4,56-9.2    c27.7-1.8,47.4-13.6,47.4-13.6s27.2-13.9,47.8-21.3c20.7-7.3,36.2-16.7,36.2-16.7s29.2-13.9,54.5-21.2c25.3-7.3,62.7-2.1,84.6-9.1    c21.9-7,63.5-31.9,104.5-35.7c0,0,24.7,2,46.8-9.4C933.5,267.7,980.3,250.9,1000.1,254z"/>
		<path class="st2" d="M606.5,420.5c-0.4,0.8-10.7,23.7-40,38.7c0,0,0,0,0,0c-2-0.2-31.6-2.9-47.2,7.1c0,0,5.1,13.6,8.6,22.7    c3.6,9.1,1.3,13.1-1.5,16.4c-2.7,3.4-8.4,4.7-15,1.2c-6.5-3.6-25.8-17.6-32.7-28c0.6,1,10.1,17.9,20.2,26.2    c10.4,8.6,1.1,13.8,1.1,13.8s-11.7,5.2-28.4-6.7C455,499.9,448.4,496,448.4,496s-19.7-14.3-19.1-30.1c0,0-14.9,17.6-36.2,14.6    c-21.4-3-37.9-8.3-46.1-17.6c0,0-24,26-72.9,21.8c0,0-7.7,11.7-25.6,14.8c-17.9,3.1-46.3,4.5-46.3,4.5s-21-0.7-25.5-13.4    c12.3,0.5,40.7,1.1,58-4.2c22.4-6.9,25.9-15.1,24.6-21.3c0,0,3.3,5.1,8.4,4c4.1-0.8,3.8-5.1,3.4-6.9c0.6,2.4,3.2,9.4,11.6,9    c10.1-0.4,20.4-3.8,20.4-3.8s18.8-6.5,28.7-12.8c8.6-5.5,6.3-11.6,5.6-13.1c0.6,1.1,2.8,4.4,6.4,4.3c4.3-0.1,8.4-5.1,9.4-8    c0,0,0.1,6-3.2,9c-3.3,3,0,8.1,3.2,9.3c3.2,1.2,42.8,14.7,81.4-2.1c0,0-6.5,24.3,15.5,38.2c21.9,13.9,39.2,17.3,45.7,16.7    c0,0-24.3-21.9-28.4-41.5c0,0,4.8,1.1,7.3-1.1c2.5-2.3,3.1-9.1,7.9-10c0,0-7.2,12.6,3,23.5c10.1,10.8,29.2,16.7,35.1,17.3    c0,0-9-42.7-15.7-54.8c0,0,29.2,1.7,62-6.3C598.5,428.1,606.1,421,606.5,420.5z"/>
		<g>
			<path d="M410.3,622.6c-9,0-14.9-6-15.9-8.5v0c0,0-0.7-1.8-1.4-4.3c-1.3-5-2-12.2,1.7-17.9c5.4-8.2,21.5-14,23.3-14.6     c0.3-0.1,6.3-2,13.2-2c5.4,0,9.9,1.2,13.4,3.5l2.3,1.9l0,0c0.2,0.2,0.3,0.3,0.5,0.5c8.4,8.7,4.9,16.8,1.9,19.9l-0.1,0.1l-0.1,0.1     c-0.6,0.5-15.2,12.8-28.6,19C417.1,621.8,413.6,622.6,410.3,622.6z"/>
			<path class="st3" d="M446.9,598.6c0,0-14.7,12.4-27.8,18.5c-13.2,6.1-21-3-21.5-4.2c0,0-0.7-1.6-1.3-4c-1-4.1-1.9-10.5,1.3-15.2     c5-7.5,21.6-13.3,21.6-13.3s15.6-5.1,24.4,1.7c0,0,0,0,0,0c0.5,0.4,1,0.8,1.4,1.3C453.3,592,446.9,598.6,446.9,598.6z"/>
			<path class="st2" d="M446.9,598.6c0,0-14.7,12.4-27.8,18.5c-13.2,6.1-21-3-21.5-4.2c0,0-0.7-1.6-1.3-4c0.7-4.1,3.6-9.5,12.5-14.4     c13.9-7.6,25.6-13.9,34.7-12.4c0,0,0,0,0,0c0.5,0.4,1,0.8,1.4,1.3C453.3,592,446.9,598.6,446.9,598.6z"/>
		</g>
		<path class="st2" d="M1000.1,424.4V475c0,0-73.6-18.5-148.4-3.1c0,0,17.1-36.8,93.6-30.6c0,0-43.8-18-104.5-2    c0,0-49.3,17.7-31.1-32.9c0,0-11.8,5.3-21.3-0.1c0,0-12.1,20.9-22.9,43.8c-10.8,22.9-18.8,34.3-18.8,34.3s-14.3,19.4-26.8,28    c-12.5,8.6-35.3,27.5-35.3,27.5s-14,12.4-28.9,9.1c-14.9-3.3-31.1-13.6-31.1-13.6s11.7-5.9,14.7-14.1c0,0-13.7,14.1-35.1,22.1    c-21.4,8-32.2,11.7-32.2,11.7s-11.3,1.2-22.2,9.8c0,0-23.7,22.3-56.6,43.2c-32.9,20.9-61.9,27.6-61.9,27.6s-17.5,3-29.9-5.2    c12.1-2.4,40.8-9.1,66.2-24.1c33.3-19.6,30.6-40.2,30.6-40.2s2.3,0.5,3.2,2.7c0,0-0.9-6.7,2.4-7.9c0,0-1.9,10.1,4,8.9    c5.9-1.3,10.1-9,21-15.6c10.8-6.7,19.1-9.2,32.8-14.8c13.7-5.6,40.4-22,58.3-43.2c17.9-21.2,19.1-26.6,29.2-31.2    c0,0-14,13-11,21.6c3.1,8.6,12.4,13.6,12.4,13.6s16.2,7.9,35.7-2.6c19.5-10.5,35.9-29.3,35.9-29.3s23.5-20.9,31.2-47.3    s13.2-42.7,19.8-51.9c0,0,8.6,14.1,21.3,14c12.6-0.1,29.1-8.9,29.1-8.9s38.7-39.5,113.3-33.8l28.2,4.2l14.1,5.9l6.9,6.3l11.6,11.6    v24.9l-14.1,6.3L1000.1,424.4z"/>
		<path class="st4" d="M1000.1,288.7c0,0-10.5,8.3-16.3,19.1s-29.1,26.8-76.7,32.5c0,0,45-0.1,89.9,37c0,0-109.7,23.6-140.2,46.2    c0,0,76.9-26.5,143.3,3.9V288.7z"/>
		<path class="st5" d="M1000.1,520.8v3.9c0,0-28.3-3.9-64.1-6.7c-35.8-2.8-54.8-2.5-62-1.6c-7.2,0.9-14.3,2.1-28.7,5.5    c-14.4,3.4-17.9,18.7-35.2,34c-17.3,15.3-41.2,30.3-41.2,30.3s-10.7,5.8-23,12.1c-5.9,3-12.2,6.1-17.9,8.7    c-17.6,8.1-34.9,14.5-40.7,16.3c-4,1.2-9.5,1.3-12.7,1.2c-1.5-0.1-2.4-0.1-2.4-0.1c-0.3,0.3-0.7,0.5-1.3,0.8    c-3.9,1.8-13.6,3.6-21.9,4.9c-9.5,1.5-14.3-2.1-14.3-2.1s-15.8-8.2-25.3-10.3c-9.5-2.2-22.9-4.8-34-13.6c-11.1-8.9,0-19.7,0-19.7    s6.3-4.7,9-11.6c2.7-6.9,10.5-1.7,10.5-1.7s13.1,5.5,22.8,10.9c5,2.7,10.5,5.6,14.7,7.7h0c3.6,1.8,6.2,3.1,6.8,3.4    c-2.2-1.4-4-3-5.2-4.7c-2.1-2.8-2.6-6-1-9.3c2.6-5.4,9.6-3.1,9.6-3.1s27.7,9,53.5,10.1c25.8,1.1,48.3,7.6,48.3,7.6    c0.1,0,0.2-0.1,0.2-0.1c52.8-21,84.9-67.1,84.9-67.1s14.1-14.8,56.3-14.9C928.2,511.4,1000.1,520.8,1000.1,520.8z"/>
		<path class="st0" d="M1000.1,520.8v3.9c0,0-28.3-3.9-64.1-6.7c-35.8-2.8-54.8-2.5-62-1.6c-7.2,0.9-14.3,2.1-28.7,5.5    c-14.4,3.4-17.9,18.7-35.2,34c-17.3,15.3-41.2,30.3-41.2,30.3s-10.7,5.8-23,12.1l-1.2-4.9c52.8-21,84.9-67.1,84.9-67.1    s14.1-14.8,56.3-14.9C928.2,511.4,1000.1,520.8,1000.1,520.8z"/>
		<g>
			<path class="st1" d="M453.5,706.4c1.6,1.9,5.7,6.2,4.9,19.1c-0.8,12.8-2,21.8-1.4,33.7c0.6,11.9-3.4,17.5-12.4,20.1     c-5.2,1.5-11.9,2.2-16.4-0.3c-3.3-1.8-5.5-5.3-5.1-11.4c0.8-14.4-1.9-35.8-6-50.6c-4.1-14.8-6.4-47.2-2.3-60.8     c0,0,0.2-2.6,1.6-5.6c1.9-4,6.1-8.7,15-9.2c15.8-0.9,19.9-0.7,19.9-0.7s12.5-1,13.8,9.3c1.3,10.2-1,43.6-8.8,47.7     C448.6,701.7,452,704.5,453.5,706.4z"/>
			<path class="st2" d="M453.5,706.4c1.6,1.9,5.7,6.2,4.9,19.1c-0.8,12.8-2,21.8-1.4,33.7c0.6,11.9-3.4,17.5-12.4,20.1     c-5.2,1.5-11.9,2.2-16.4-0.3c17.2-7.2,20.3-23.8,19.1-41.5c-1.4-19.2-8.6-21.1-15.5-30.2c-6.9-9.1-4.1-16.6,3-17.6     c7-1,14.5-19.3,12.1-34.4c-2-12.8-23.6-6.9-30.4-4.7c1.9-4,6.1-8.7,15-9.2c15.8-0.9,19.9-0.7,19.9-0.7s12.5-1,13.8,9.3     c1.3,10.2-1,43.6-8.8,47.7C448.6,701.7,452,704.5,453.5,706.4z"/>
		</g>
		<path class="st0" d="M674.6,624.6c-1.5-0.1-2.4-0.1-2.4-0.1c-0.3,0.3-0.7,0.5-1.3,0.8c-2.3-4.5-9.5-16.9-21.4-21.9    c-9.9-4.2-14.8-10.2-17-13.7c3.6,1.8,6.2,3.1,6.8,3.4c-2.2-1.4-4-3-5.2-4.7c4.1,2,12.1,6.2,22.9,12.8    C670.1,609.1,673.7,620.6,674.6,624.6z"/>
		<g>
			<path class="st1" d="M548.5,622.4c0,0-0.8,2.2-2.4,5.4c-4.3,8.2-14.8,22.6-33.4,17.5c0,0,8.6,19.9,4.3,37.4     c-4.3,17.4-17.6,21.3-17.6,21.3s6.7,10.5,6.9,25c0.2,14.5,0.8,25.7-6.9,37.2c-7.7,11.4-25.1,10.6-25.1,10.6s-1.5-0.6-2.7-2.3     c-1.3-1.8-2.3-4.8-1.2-9.5c2.2-9.3,1.3-27.5,1.3-27.5s-2.4-29.6,7.4-36.1c0,0-2.2-3.6,0.7-11.2c2.9-7.5,1.6-21.4,1.6-21.4     s-0.8-3.4,3.9-12.6c0.6-1.1,1.1-2.2,1.6-3.2c3.7-8,5.6-15.2,5.6-15.2s1-10.3,16.3-14.5c15.3-4.2,21.1-13,21.1-13     s9.8-12.8,16.7-7.7c0.7,0.5,1.3,1.1,1.7,1.8C552.5,610.5,548.5,622.4,548.5,622.4z"/>
			<path class="st2" d="M546.2,627.8c-4.3,8.2-14.8,22.6-33.4,17.5c0,0,8.6,19.9,4.3,37.4c-4.3,17.4-17.6,21.3-17.6,21.3     s6.7,10.5,6.9,25c0.2,14.5,0.8,25.7-6.9,37.2c-7.7,11.4-25.1,10.6-25.1,10.6s-1.5-0.6-2.7-2.3c2.8-2.2,10.8-9.3,17.6-23.6     c8.4-17.6,3.2-46,3.2-46s-0.6-5.4-7.9-4.4c0,0,2-4.6,8-9.3c6-4.7,8.9-15,10.6-21.9c1.8-6.9-3-20.6-3-20.6s-2.5-8.9,9.9-11     c12.3-2.2,18.6-9.8,21.2-12.6c2.6-2.8,6.3-5.2,10.3-2.5C543.4,623.6,545,625.5,546.2,627.8z"/>
			<path class="st2" d="M548.3,604.3c-3.8-0.6-9.2-0.1-13.6,5.4c-6.6,8.3-18.9,17.6-23.3,19c-4.4,1.4-11.3,2.1-15,12.4     c-2.5,7.1-6.9,10.4-9.5,11.8c3.7-8,5.6-15.2,5.6-15.2s1-10.3,16.3-14.5c15.3-4.2,21.1-13,21.1-13s9.8-12.8,16.7-7.7     C547.3,603,547.8,603.6,548.3,604.3z"/>
		</g>
		<g>
			<path class="st1" d="M623.5,633.2c-1.9,4.3-5.9,10-10.9,11.9c-0.4,0.2-0.7,0.6-0.5,1.1c0.9,2.3,3.4,9,2.1,16.6     c-1.5,9.3-5.6,17.6-12.4,24.3c-6.8,6.7-18.7,7.1-18.7,7.1s12.8-0.3,20.2,7.4c7.4,7.7,7.2,15.4,7.2,15.4s0.8,17.3-12,25.7     c-7.1,4.7-12.5,4-16,2.2c-2.8-1.4-4.4-3.7-4.8-4.6c-0.8-2-7.6-12.4-9-32.7c-1.4-20.4,1.5-39.5,1.5-39.5s1.9-16.1,13.7-21.4     c0.6-0.3,0.7-1.2,0-1.5c-1.8-0.8-4-2.7-2.6-6.4c2.2-6,14.6-12,14.6-12s9.1-3.2,16.6-2.4c1.5,0.2,3,0.5,4.3,0.8     C621.9,626.6,625.1,629.5,623.5,633.2z"/>
			<path class="st5" d="M623.5,633.2c-1.9,4.3-5.9,10-10.9,11.9c-0.4,0.2-0.7,0.6-0.5,1.1c0.9,2.3,3.4,9,2.1,16.6     c-1.5,9.3-5.6,17.6-12.4,24.3c-6.8,6.7-18.7,7.1-18.7,7.1s12.8-0.3,20.2,7.4c7.4,7.7,7.2,15.4,7.2,15.4s0.8,17.3-12,25.7     c-7.1,4.7-12.5,4-16,2.2c5.3-4.8,10.6-12.1,9.2-21.8c-2.5-18.5-16.2-26.8-16.2-26.8c12.9-9.3,17.3-27.5,15.5-46.4     c-1.4-14.8,17.6-22.1,25.8-24.6C621.9,626.6,625.1,629.5,623.5,633.2z"/>
		</g>
	</g>
</g>
</svg>
